<svg width="800" height="600" xmlns="http://www.w3.org/2000/svg">
 <g id="Layer_1">
  <title>Layer 1</title>
  <g stroke-width="3" stroke="null">
   <g stroke="null">
    <g stroke="null" id="svg_2">
     <g stroke="null">
      <g stroke="null">
       <path stroke="null" d="m366.89643,466.16076c2.00493,-2.86265 3.60244,-5.1249 5.17851,-7.39787c5.61809,-8.1591 7.95539,-16.75779 4.79253,-26.62162c-1.30803,-4.09563 -1.38308,-8.59869 -2.0371,-12.89803c-1.46885,-9.75661 -4.23501,-18.92354 -8.86672,-27.84388c-4.38512,-8.42714 -6.75458,-17.90499 -10.03537,-26.9111c-2.53029,-6.93685 -5.10346,-13.86297 -8.68446,-20.5425c1.23298,9.90672 2.54101,19.79199 3.66677,29.6987c0.43958,3.87048 0.80412,7.79457 0.66474,11.66505c-0.51463,14.10956 1.47957,27.83315 5.42511,41.35303c1.90844,6.54015 3.1843,13.06957 -3.08781,18.58045c-3.24863,2.86265 -4.49233,7.15128 -3.57028,11.45062c1.10432,5.1249 -0.06433,9.45641 -3.49523,13.5306c-8.07333,2.23008 -16.36109,1.71545 -25.76389,-0.62185c3.3344,-5.19995 5.56449,-10.32486 9.20981,-14.03451c10.35702,-10.52857 11.01104,-23.26577 9.63868,-36.64627c-2.46596,-24.01628 -9.88527,-46.93896 -15.83573,-70.17257c-1.76906,-6.90468 -5.73603,-13.20895 -8.29848,-19.95281c-1.9406,-5.07129 -2.40163,-10.88238 -5.08202,-15.43904c-2.55173,-4.36367 -7.36571,-7.32282 -10.76444,-11.23619c-5.54304,-6.41149 -9.32775,-13.90586 -10.43207,-22.30083c-2.16575,-16.57552 -9.63868,-30.65292 -19.32024,-43.88332c-6.45438,-8.82384 -12.56566,-17.90499 -18.85921,-26.84677c-3.13069,-4.43872 -4.09563,-4.44944 -8.2556,-1.37236c-2.2408,1.65112 -4.87831,2.76616 -7.3121,4.17068c-6.2185,3.581 -12.57638,6.94757 -18.52684,10.93598c-1.72617,1.15793 -2.43379,4.0313 -3.30224,6.22922c-3.30224,8.44858 -10.21764,10.80733 -16.92933,4.91047c-8.36281,-7.34426 -11.93309,-12.99452 -7.20488,-25.3672c1.62968,-4.25646 3.3344,-8.54508 5.55376,-12.51205c3.72038,-6.64736 5.28573,-13.75575 5.53232,-21.22868c0.05361,-1.41525 -0.50391,-2.87338 -0.96494,-5.28573c-0.91133,2.84121 -1.50102,4.69604 -2.25153,7.03334c-3.25935,-6.55087 -1.20081,-13.26256 9.11332,-31.37127c-5.95046,-10.52857 -6.27211,-17.47613 -0.78267,-22.6332c2.85193,3.55956 5.69315,7.11911 8.54508,10.66795c1.89772,2.35874 3.9777,3.05564 6.81891,1.29731c2.35874,-1.45813 5.55376,-1.91916 7.37643,-3.78471c1.66184,-1.70473 1.97277,-4.70676 3.11997,-7.7624c4.62099,-0.02144 7.86962,3.34512 9.16693,7.73024c1.84411,6.2185 5.86469,8.77023 11.7401,9.66012c2.79833,0.41814 5.54304,1.29731 8.35209,1.61895c15.46048,1.77978 28.02614,10.80733 41.64251,17.00438c13.04813,5.93974 25.15277,13.97018 37.73987,20.94992c3.0342,1.68328 6.25067,3.24863 9.58507,4.10636c10.4964,2.70183 19.599,8.38426 29.08758,13.21968c3.02348,1.5439 5.54304,4.06347 8.52364,5.71459c11.4399,6.32572 23.83401,6.315 36.4104,5.38222c16.90789,-1.26514 33.05455,-6.18634 49.42636,-9.96032c23.49092,-5.42511 46.61732,-4.14924 68.95031,4.50305c17.87283,6.92612 31.13539,19.87776 35.10237,38.8013c3.23791,15.41759 8.37353,30.4921 7.81601,46.93896c-0.67546,20.15652 1.17937,40.4417 2.55173,60.63039c0.5468,7.97684 4.24574,15.94295 3.82759,23.78041c-1.05071,19.56684 6.95829,36.59266 13.35906,54.05807c1.80122,4.91047 2.71255,8.48075 -0.27876,13.17679c-3.3344,5.21068 -2.55173,6.74386 2.43379,10.16403c6.5187,4.48161 6.67953,12.19041 0.35381,17.00438c-0.34309,0.25732 -0.66474,0.57896 -1.02927,0.81484c-3.38801,2.40163 -6.32572,4.85686 -9.96032,7.36571c-5.69315,2.53029 -5.69315,2.53029 -6.86179,-1.77978c-0.61113,-2.29441 -1.07216,-4.69604 -1.12576,-7.05478c-0.11794,-5.6717 0.10722,-11.37557 0.08577,-17.06871c-0.01072,-2.61606 0.18227,-5.33933 -0.46103,-7.82673c-2.90554,-11.18258 -6.08984,-22.29011 -9.82094,-33.39764c0.33237,2.53029 0.81484,5.04985 0.9971,7.58014c0.21443,3.04492 0.51463,6.16489 0.11794,9.16693c-0.34309,2.6375 -1.59751,5.14635 -3.49523,7.44076c-1.25442,-8.69518 -2.50884,-17.39036 -3.77399,-26.09626c-0.2466,-0.01072 -0.48247,-0.03216 -0.72907,-0.04289c-0.28948,2.93771 -0.57896,5.89685 -0.86845,8.84528c-0.46103,0.04289 -0.91133,0.10722 -1.37236,0.1501c0.2466,-10.61434 -6.2185,-19.62044 -5.62882,-30.57787c0.56824,-10.94671 -4.14924,-20.31734 -14.16317,-28.37995c1.30803,3.76327 2.61606,6.16489 2.90554,8.7059c0.40742,3.31296 1.19009,7.34426 -0.20371,10.00321c-7.10839,13.55204 -10.18548,28.33707 -14.06668,42.85405c-2.76616,10.33558 -5.04985,20.77837 -7.45148,31.19972c-0.77195,3.3344 -2.32658,5.07129 -6.0684,5.66098c-6.02551,0.97566 -6.81891,2.54101 -6.42221,8.71662c0.33237,5.38222 -2.46596,9.09188 -7.92323,9.96032c-6.92612,1.10432 -13.80936,1.17937 -20.86414,-1.26514c0.71834,-8.04117 5.18923,-14.324 10.58217,-17.84067c9.17765,-5.98263 14.19534,-14.15245 17.36892,-23.79113c3.54883,-10.78588 6.20778,-21.86125 9.19909,-32.81868c0.22515,-0.83628 0.32165,-1.75833 0.23587,-2.61606c-1.30803,-12.9838 -0.82556,-26.17131 -5.15707,-38.8013c-1.98349,-5.77892 -3.15214,-11.8366 -4.83542,-17.71201c-2.00493,-6.90468 -3.20574,-14.28111 -6.56159,-20.47817c-2.7876,-5.1249 -7.86962,-9.26342 -12.62999,-12.93019c-1.5439,-1.17937 -5.36078,0.12866 -7.95539,0.9435c-3.96697,1.21154 -7.26921,1.44741 -9.44569,-2.90554c-1.62968,-3.24863 -4.89975,-2.94843 -7.52653,-2.49812c-3.81687,0.64329 -7.64447,1.7905 -11.17186,3.36657c-15.0209,6.71169 -30.29911,12.34051 -46.87463,13.88441c-10.82877,1.00783 -21.6361,2.57317 -32.46486,3.62389c-3.19502,0.31093 -6.48654,-0.28948 -10.7966,-0.53608c0,2.6375 -0.3967,5.15707 0.06433,7.51581c3.08781,15.85718 6.3686,31.69291 9.56363,47.53937c0.21443,1.06143 0.51463,2.1872 0.38598,3.23791c-1.85483,14.84935 4.20285,27.7045 10.21764,40.53819c2.90554,6.19706 5.8218,12.06175 0.85772,18.752c-3.24863,4.38512 -3.32368,8.79167 0.5468,13.62709c4.1278,5.13562 3.37729,9.35992 -0.93278,14.0774c-0.64329,0.70762 -1.84411,1.25442 -2.79833,1.27586c-6.34716,0.08577 -12.6836,0.04289 -19.03076,-0.07505c-0.72907,-0.02144 -1.47957,-0.71834 -3.42018,-1.69401zm192.69849,-144.52655c0,-13.27328 0,-26.54657 0,-39.50893c-4.36367,12.84442 -11.59,25.95688 0,39.50893zm-324.60576,-170.79435c-0.17154,-0.09649 -0.34309,-0.18227 -0.51463,-0.27876c-0.07505,0.16082 -0.25732,0.38598 -0.20371,0.50391c0.06433,0.12866 0.31093,0.19299 0.48247,0.28948c0.08577,-0.17154 0.16082,-0.34309 0.23587,-0.51463z"/>
      </g>
     </g>
    </g>
   </g>
  </g>
  <line stroke="#ffffff" stroke-linecap="undefined" stroke-linejoin="undefined" id="svg_3" y2="162.06897" x2="241.37931" y1="199.31034" x1="215.86207" fill="none"/>
  <line stroke-linecap="undefined" stroke-linejoin="undefined" id="svg_4" y2="257.93103" x2="354.48276" y1="162.06897" x1="241.37931" stroke="#ffffff" fill="none"/>
  <line stroke-linecap="undefined" stroke-linejoin="undefined" id="svg_5" y2="298.62069" x2="326.2069" y1="257.24138" x1="353.7931" stroke="#ffffff" fill="none"/>
  <line stroke-linecap="undefined" stroke-linejoin="undefined" id="svg_6" y2="301.37931" x2="359.31034" y1="257.93103" x1="353.10345" stroke="#ffffff" fill="none"/>
  <line stroke-linecap="undefined" stroke-linejoin="undefined" id="svg_7" y2="381.37931" x2="341.37931" y1="298.62069" x1="326.2069" stroke="#ffffff" fill="none"/>
  <line stroke-linecap="undefined" stroke-linejoin="undefined" id="svg_9" y2="383.44828" x2="371.72414" y1="300.68966" x1="358.62069" stroke="#ffffff" fill="none"/>
  <line stroke-linecap="undefined" stroke-linejoin="undefined" id="svg_10" y2="431.72414" x2="346.89655" y1="381.37931" x1="341.37931" stroke="#ffffff" fill="none"/>
  <line stroke-linecap="undefined" stroke-linejoin="undefined" id="svg_11" y2="431.03448" x2="386.2069" y1="384.13793" x1="371.72414" stroke="#ffffff" fill="none"/>
  <line stroke-linecap="undefined" stroke-linejoin="undefined" id="svg_12" y2="454.48276" x2="340.68966" y1="431.72414" x1="346.89655" stroke="#ffffff" fill="none"/>
  <line stroke-linecap="undefined" stroke-linejoin="undefined" id="svg_13" y2="457.24138" x2="380.68966" y1="432.41379" x1="386.2069" stroke="#ffffff" fill="none"/>
  <line stroke-linecap="undefined" stroke-linejoin="undefined" id="svg_14" y2="244.13793" x2="503.44828" y1="258.62069" x1="353.10345" stroke="#ffffff" fill="none"/>
  <line stroke-linecap="undefined" stroke-linejoin="undefined" id="svg_15" y2="246.2069" x2="549.65517" y1="244.13793" x1="504.13793" stroke="#ffffff" fill="none"/>
  <line stroke-linecap="undefined" stroke-linejoin="undefined" id="svg_16" y2="276.55172" x2="542.06897" y1="244.82759" x1="502.75862" stroke="#ffffff" fill="none"/>
  <line stroke-linecap="undefined" stroke-linejoin="undefined" id="svg_17" y2="322.75862" x2="525.51724" y1="277.24138" x1="542.06897" stroke="#ffffff" fill="none"/>
  <line stroke-linecap="undefined" stroke-linejoin="undefined" id="svg_18" y2="377.24138" x2="538.62069" y1="322.06897" x1="525.51724" stroke="#ffffff" fill="none"/>
  <line stroke-linecap="undefined" stroke-linejoin="undefined" id="svg_19" y2="437.24138" x2="524.82759" y1="377.24138" x1="538.62069" stroke="#ffffff" fill="none"/>
  <line stroke-linecap="undefined" stroke-linejoin="undefined" id="svg_20" y2="461.37931" x2="506.89655" y1="437.24138" x1="524.82759" stroke="#ffffff" fill="none"/>
  <line stroke-linecap="undefined" stroke-linejoin="undefined" id="svg_21" y2="331.03448" x2="543.44828" y1="246.2069" x1="551.03448" stroke="#ffffff" fill="none"/>
  <line stroke-linecap="undefined" stroke-linejoin="undefined" id="svg_22" y2="388.27586" x2="582.06897" y1="328.96552" x1="543.44828" stroke="#ffffff" fill="none"/>
  <line stroke-linecap="undefined" stroke-linejoin="undefined" id="svg_23" y2="436.55172" x2="595.17241" y1="388.27586" x1="582.06897" stroke="#ffffff" fill="none"/>
  <line stroke-linecap="undefined" stroke-linejoin="undefined" id="svg_25" y2="461.37931" x2="599.31034" y1="435.17241" x1="594.48276" stroke="#ffffff" fill="none"/>
 </g>

</svg>