<?xml version="1.0" standalone="no"?>
<!DOCTYPE svg PUBLIC "-//W3C//DTD SVG 20010904//EN"
 "http://www.w3.org/TR/2001/REC-SVG-20010904/DTD/svg10.dtd">
<svg version="1.0" xmlns="http://www.w3.org/2000/svg"
 width="532.000000pt" height="469.000000pt" viewBox="0 0 532.000000 469.000000"
 preserveAspectRatio="xMidYMid meet">

<g transform="translate(0.000000,469.000000) scale(0.100000,-0.100000)"
fill="#000000" stroke="none">
<path d="M2400 4639 c-92 -11 -88 -6 -106 -131 -7 -52 -19 -59 -64 -33 -30 17
-66 19 -75 5 -12 -19 22 -56 77 -85 38 -20 58 -38 71 -65 27 -58 23 -73 -39
-121 -31 -24 -51 -45 -45 -47 19 -6 12 -25 -20 -51 -25 -21 -34 -41 -50 -111
-31 -131 -83 -247 -139 -303 -44 -45 -49 -48 -83 -42 -21 4 -37 11 -37 15 0 5
16 18 36 30 45 29 38 35 -15 14 -53 -21 -62 -12 -26 23 35 35 65 83 65 103 -1
8 -10 -2 -20 -22 -11 -20 -25 -40 -32 -44 -23 -15 -91 -4 -115 18 -29 27 -30
42 0 28 20 -10 20 -10 -3 9 l-24 19 34 4 35 4 -43 8 c-42 8 -42 9 -25 29 17
19 16 19 -22 -2 -40 -21 -85 -28 -85 -13 0 4 15 13 33 20 18 6 42 18 52 26 16
12 10 11 -27 -2 -54 -19 -75 -9 -38 18 50 37 64 51 30 30 -67 -40 -98 -53
-117 -46 -16 7 -16 9 7 22 l25 15 -25 -4 c-14 -3 -34 -2 -45 3 -19 7 -18 9 9
21 24 11 32 11 58 -4 17 -10 33 -15 36 -13 2 3 -7 11 -22 17 -14 7 -26 15 -26
18 0 3 24 19 54 34 29 16 64 39 77 53 l23 25 -44 -20 c-25 -11 -54 -21 -64
-21 -18 0 -18 2 5 28 l24 27 -30 -26 c-17 -15 -40 -32 -52 -38 -27 -14 -76
-15 -68 -1 3 6 -4 10 -16 10 -28 0 -18 11 24 27 43 15 7 17 -44 1 -36 -10 -44
-9 -94 17 -59 30 -67 45 -14 26 47 -16 77 -13 89 9 10 18 9 19 -14 8 -18 -8
-35 -8 -58 -1 l-33 10 33 19 c62 35 71 44 35 34 -18 -4 -37 -11 -43 -15 -20
-12 -70 -24 -70 -16 0 4 23 18 51 31 36 17 69 24 115 24 54 1 62 3 47 14 -9 6
-30 12 -47 12 -16 0 -44 5 -62 12 -26 9 -40 8 -76 -5 -24 -9 -53 -17 -65 -17
-26 0 -93 38 -93 52 0 9 -18 7 -75 -9 -19 -5 -19 -4 -2 13 12 13 31 18 58 18
27 -1 36 2 28 7 -23 14 -75 10 -121 -9 -51 -22 -161 -34 -195 -21 -13 5 -26
17 -29 26 -29 87 -97 193 -124 193 -4 0 -10 -44 -14 -97 -11 -153 -31 -159
-152 -40 l-84 83 0 -56 c0 -35 10 -82 26 -128 26 -71 26 -73 10 -117 -10 -25
-44 -74 -76 -109 -63 -70 -66 -77 -74 -209 -5 -91 -26 -139 -136 -312 -38 -60
-69 -121 -69 -135 -1 -33 68 -158 99 -182 37 -27 119 -34 158 -14 37 19 73 21
91 4 7 -7 38 -14 69 -14 31 -1 121 -5 200 -9 l142 -8 0 -86 c0 -101 -9 -139
-60 -246 -78 -165 -73 -141 -78 -376 l-4 -215 -205 0 -205 1 -39 -44 c-26 -29
-44 -63 -54 -100 -46 -169 -78 -262 -134 -383 -34 -73 -38 -118 -17 -175 8
-21 22 -74 30 -118 19 -93 67 -199 102 -221 22 -15 26 -15 49 0 41 27 59 73
60 152 0 83 -17 111 -69 116 -37 4 -38 -8 11 218 47 220 67 282 103 320 30 32
33 33 93 27 40 -3 147 -34 303 -86 146 -49 249 -79 260 -75 10 3 42 18 71 32
42 22 57 25 79 17 56 -20 101 -121 89 -199 -23 -149 -82 -298 -168 -430 -84
-127 -94 -149 -127 -262 -36 -127 -125 -313 -208 -439 -57 -87 -82 -114 -166
-179 -43 -32 -128 -144 -123 -160 4 -13 115 -35 184 -35 45 -1 54 3 77 29 24
29 34 63 34 123 0 34 34 74 79 93 43 19 57 42 97 166 45 139 110 265 186 363
34 44 79 114 100 155 21 41 75 125 119 185 108 147 206 295 233 350 26 52 7
48 303 65 110 6 250 20 310 31 206 38 195 39 246 -18 51 -58 154 -249 165
-308 8 -46 30 -93 120 -255 35 -63 73 -142 84 -175 37 -103 25 -247 -32 -410
-47 -135 -83 -183 -173 -228 -50 -25 -100 -72 -169 -159 l-37 -46 28 -5 c81
-16 108 -17 149 -11 54 8 102 44 106 82 3 25 6 27 61 30 72 4 75 8 122 172 51
178 101 328 152 460 60 152 61 189 6 267 -147 210 -176 421 -92 661 44 123 86
212 100 212 7 0 60 -34 117 -76 58 -42 127 -86 153 -99 26 -12 59 -35 72 -51
14 -17 63 -53 109 -81 81 -49 206 -163 280 -254 20 -24 54 -80 77 -124 23 -44
73 -120 112 -169 78 -99 130 -202 179 -351 37 -113 68 -179 103 -221 13 -16
34 -49 47 -74 25 -51 120 -154 163 -176 33 -18 69 -5 99 37 34 45 34 100 2
159 -30 55 -65 80 -112 80 -38 0 -62 29 -73 86 -6 31 -34 87 -78 158 -82 133
-108 183 -154 301 -49 126 -63 170 -77 247 -13 72 -7 64 -114 151 -21 16 -37
41 -42 60 -3 18 -35 86 -69 152 -57 111 -63 128 -74 220 -16 126 -35 212 -66
295 -14 36 -37 110 -53 165 -16 55 -32 110 -36 123 -5 16 -3 22 8 22 20 0 53
-45 61 -83 8 -42 26 -87 34 -87 4 0 14 -13 24 -29 12 -21 17 -52 17 -110 0
-53 4 -81 11 -81 7 0 9 12 5 33 -4 21 -1 40 8 52 22 31 46 3 46 -54 0 -54 15
-87 52 -114 37 -27 45 -16 19 26 -24 39 -40 127 -23 127 6 0 19 -16 28 -35 17
-36 88 -105 109 -105 21 0 93 -69 121 -117 25 -43 28 -45 35 -25 11 30 44 28
86 -4 29 -22 33 -23 33 -7 0 11 -21 39 -46 63 -54 53 -74 88 -74 130 0 38 11
38 34 -1 10 -17 38 -53 61 -79 43 -48 48 -61 60 -152 6 -48 32 -90 67 -109 37
-20 42 6 9 44 -30 34 -37 59 -25 91 10 27 34 19 34 -11 0 -40 8 -48 84 -84 62
-30 71 -38 92 -83 13 -28 24 -56 24 -62 0 -26 42 -64 71 -64 40 0 69 -32 69
-77 0 -31 8 -43 52 -84 69 -63 158 -109 213 -109 33 0 52 8 89 35 25 20 46 38
46 40 0 2 -21 -5 -46 -15 -25 -11 -59 -20 -75 -20 -75 0 -149 64 -149 128 0
63 13 70 53 29 34 -36 69 -47 82 -26 4 5 -1 19 -10 29 -11 13 -21 49 -27 106
-11 100 -19 119 -83 189 -25 27 -40 52 -35 53 18 6 109 -59 144 -102 19 -22
51 -68 71 -101 56 -89 83 -114 143 -131 29 -9 56 -13 59 -10 3 3 -11 24 -31
47 -50 59 -46 81 7 33 l42 -38 3 209 c1 132 -1 212 -8 219 -13 13 -13 29 0 21
6 -3 10 0 10 8 0 7 -25 41 -55 75 -62 68 -117 94 -218 106 -57 6 -137 32 -137
45 0 3 35 6 78 6 60 0 86 5 119 23 64 33 94 29 158 -23 42 -34 55 -41 55 -28
-1 20 -12 35 -58 78 -30 27 -41 30 -144 40 l-112 10 -40 52 c-60 76 -118 103
-222 103 -77 0 -83 2 -127 35 -27 21 -75 78 -118 140 -167 246 -346 346 -594
331 -56 -3 -114 -10 -130 -15 -129 -41 -279 -81 -322 -87 -48 -6 -60 -3 -138
35 -124 59 -210 81 -350 88 -70 3 -131 11 -147 19 -15 8 -38 14 -51 14 -29 0
-37 20 -37 96 0 28 -7 71 -16 95 -20 56 -12 134 20 197 24 48 96 321 96 365 0
41 -30 125 -54 154 -14 16 -48 42 -78 57 -82 44 -98 63 -98 113 0 32 -4 43
-16 43 -11 0 -14 6 -8 23 3 12 10 23 14 25 4 1 28 16 53 32 96 61 56 146 -44
94 -17 -8 -33 -14 -35 -11 -3 2 -7 34 -11 71 -3 37 -9 69 -13 71 -21 13 -92
20 -140 14z m100 -319 c0 -5 -4 -10 -10 -10 -5 0 -10 5 -10 10 0 6 5 10 10 10
6 0 10 -4 10 -10z m-1912 -194 c7 -34 -8 -61 -43 -80 -20 -11 -43 -31 -50 -45
l-14 -26 -1 36 c0 28 10 48 42 88 42 52 60 59 66 27z m1140 -312 c36 -25 25
-32 -27 -15 -27 9 -47 19 -44 24 7 12 47 8 71 -9z m95 -74 c9 0 17 -4 17 -10
0 -16 -74 -12 -96 6 -18 14 -17 15 21 10 22 -3 48 -6 58 -6z m73 -106 c25 -6
33 -23 12 -25 -64 -6 -168 7 -168 21 0 9 92 19 118 13 8 -2 25 -6 38 -9z m-66
-58 c0 -33 -35 -47 -58 -24 -20 20 -14 28 23 28 19 0 35 -2 35 -4z m-939 -79
c4 -15 10 -60 14 -101 l7 -73 -63 -7 c-214 -20 -339 -18 -339 5 0 17 95 78
223 144 71 36 134 64 140 62 6 -2 14 -15 18 -30z m1186 -44 c-9 -9 -19 -14
-23 -11 -10 10 6 28 24 28 15 0 15 -1 -1 -17z m-267 -7 c0 -11 -19 -15 -25 -6
-3 5 1 10 9 10 9 0 16 -2 16 -4z m75 -15 c7 -12 -31 -25 -45 -16 -6 4 -8 11
-5 16 8 12 42 12 50 0z m95 -26 c16 -19 4 -35 -26 -35 -14 0 -38 -7 -53 -15
-26 -13 -30 -13 -41 1 -16 18 -10 24 43 46 52 21 62 22 77 3z m-1066 -127 c15
-58 15 -58 -106 -58 -62 0 -142 5 -178 11 -36 6 -87 14 -113 18 -26 3 -49 11
-50 16 -1 6 73 12 196 16 109 4 201 10 204 13 14 14 41 4 47 -16z m2700 -534
c4 -9 4 -19 2 -21 -8 -8 -26 8 -26 23 0 19 16 18 24 -2z m356 -331 c0 -7 -4
-13 -10 -13 -12 0 -30 34 -30 57 0 15 4 14 20 -7 11 -14 20 -31 20 -37z
m-1840 -7 c0 -3 -4 -8 -10 -11 -5 -3 -10 -1 -10 4 0 6 5 11 10 11 6 0 10 -2
10 -4z"/>
</g>
</svg>
